HIERARCHY
ROOT Hips
{
  OFFSET 265.287 66.7526 -254.649
  CHANNELS 6 Xposition Yposition Zposition Zrotation Xrotation Yrotation
  JOINT LeftUpLeg
  {
    OFFSET 8.64259 1.95398 -2.38835
    CHANNELS 3 Zrotation Xrotation Yrotation
    JOINT LeftLeg
    {
      OFFSET 43.7702 0 0
      CHANNELS 3 Zrotation Xrotation Yrotation
      JOINT LeftFoot
      {
        OFFSET 40.6238 0 0
        CHANNELS 3 Zrotation Xrotation Yrotation
        JOINT LeftToeBase
        {
          OFFSET 12.7242 0 0
          CHANNELS 3 Zrotation Xrotation Yrotation
          End Site
          {
            OFFSET 0 0 0
          }
        }
      }
    }
  }
  JOINT RightUpLeg
  {
    OFFSET -8.2249 1.95398 -2.59336
    CHANNELS 3 Zrotation Xrotation Yrotation
    JOINT RightLeg
    {
      OFFSET 43.5653 0 0
      CHANNELS 3 Zrotation Xrotation Yrotation
      JOINT RightFoot
      {
        OFFSET 40.6238 0 0
        CHANNELS 3 Zrotation Xrotation Yrotation
        JOINT RightToeBase
        {
          OFFSET 12.7242 0 0
          CHANNELS 3 Zrotation Xrotation Yrotation
          End Site
          {
            OFFSET 0 0 0
          }
        }
      }
    }
  }
  JOINT Spine
  {
    OFFSET 0.165834 0.87714 6.61349
    CHANNELS 3 Zrotation Xrotation Yrotation
    JOINT Spine1
    {
      OFFSET 7.38963 1.71661e-005 0
      CHANNELS 3 Zrotation Xrotation Yrotation
      JOINT Spine2
      {
        OFFSET 11.9445 1.14441e-005 0
        CHANNELS 3 Zrotation Xrotation Yrotation
        JOINT Spine3
        {
          OFFSET 14.7254 4.19617e-005 0
          CHANNELS 3 Zrotation Xrotation Yrotation
          JOINT Spine4
          {
            OFFSET 10.9679 0 0
            CHANNELS 3 Zrotation Xrotation Yrotation
            JOINT RightShoulder
            {
              OFFSET 2.46616 -1.6653 3.69651
              CHANNELS 3 Zrotation Xrotation Yrotation
              JOINT RightArm
              {
                OFFSET 13.0012 0 0
                CHANNELS 3 Zrotation Xrotation Yrotation
                JOINT RightForeArm
                {
                  OFFSET 28.7848 1.52588e-005 0
                  CHANNELS 3 Zrotation Xrotation Yrotation
                  JOINT RightHand
                  {
                    OFFSET 26.5688 1.52588e-005 0
                    CHANNELS 3 Zrotation Xrotation Yrotation
                    End Site
                    {
                      OFFSET 0 0 0
                    }
                  }
                }
              }
            }
            JOINT LeftShoulder
            {
              OFFSET 2.38034 -1.29275 -3.7523
              CHANNELS 3 Zrotation Xrotation Yrotation
              JOINT LeftArm
              {
                OFFSET 16.3182 6.10351e-005 0
                CHANNELS 3 Zrotation Xrotation Yrotation
                JOINT LeftForeArm
                {
                  OFFSET 27.0901 0 0
                  CHANNELS 3 Zrotation Xrotation Yrotation
                  JOINT LeftHand
                  {
                    OFFSET 24.5451 1.52588e-005 0
                    CHANNELS 3 Zrotation Xrotation Yrotation
                    End Site
                    {
                      OFFSET 0 0 0
                    }
                  }
                }
              }
            }
            JOINT Neck
            {
              OFFSET 5.0226 -0.0266342 0
              CHANNELS 3 Zrotation Xrotation Yrotation
              JOINT Head
              {
                OFFSET 6.69364 2.86102e-005 0
                CHANNELS 3 Zrotation Xrotation Yrotation
                End Site
                {
                  OFFSET 0 0 0
                }
              }
            }
          }
        }
      }
    }
  }
}
MOTION
Frames:	7
Frame Time:	0.0416667
-261.184 80.2393 260.302 90.0229 30.5249 83.7679 -165.124 -11.8974 84.4139 -65.9491 12.6757 -5.46366 -151.292 68.4601 -20.9464 -17.419 11.5721 7.28929 175.828 -22.1531 105.218 17.9142 7.21797 -68.359 54.4788 8.8154 88.0332 52.8185 -4.63459 -11.4907 2.49905 4.80459 -89.6388 17.2902 5.106 -0.184757 5.6292 5.09289 -0.409887 -16.9828 4.92585 1.36218 3.02985 4.92584 1.36218 129.172 -25.7625 -26.2541 -62.8113 -27.6986 -133.404 -136.113 -64.2991 179.953 -21.1606 -4.37853 18.5913 -52.5632 -41.28 138.389 -2.49174 55.1658 -27.4681 46.6503 -10.4116 -81.6057 23.1334 -14.9833 -64.3911 72.2023 -3.51492 13.7759 -104.515 -10.8288 -4.42334 
-261.885 79.8606 261.058 89.9736 30.6326 83.3287 -165.515 -11.9627 83.8098 -65.127 11.9816 -5.65357 -151.393 68.4209 -20.7168 -17.2196 11.3911 7.49303 176.904 -21.4943 105.779 15.7392 7.95874 -69.149 65.0373 6.74978 86.3246 53.5644 -5.97717 -21.4425 2.50198 4.7815 -89.5854 17.3344 5.13875 -0.0855189 5.67358 5.12998 -0.312212 -16.9387 4.92645 1.46668 3.07399 4.92645 1.46668 129.093 -25.5719 -26.2437 -58.2418 -30.7034 -130.13 -137.088 -57.5897 179.962 -21.1979 -4.70798 20.2761 -52.5888 -41.3855 138.298 -3.09597 55.2517 -26.3645 49.0867 -10.2868 -81.5078 23.4802 -15.1148 -64.1416 71.5049 -3.53066 13.8956 -104.14 -10.66 -4.58232 
-263.909 78.7485 263.233 89.8174 30.9542 82.0485 -166.696 -12.0804 82.037 -62.7191 9.97951 -6.21626 -151.201 68.5138 -20.2831 -16.6412 11.0315 7.80919 179.91 -13.5513 105.727 -5.32762 15.0602 -67.943 98.3316 -4.49384 73.9419 51.6736 -7.85401 -47.2471 2.51112 4.71328 -89.4286 17.4644 5.23678 0.205567 5.80407 5.24074 -0.0257697 -16.8087 4.93229 1.77377 3.20398 4.9323 1.77377 128.862 -25.0133 -26.2126 -39.9326 -37.8576 -116.494 -141.716 -36.3531 179.976 -20.7058 -5.56877 25.4174 -52.6701 -41.6871 138.028 -4.83093 55.4672 -23.1892 57.5752 -9.75923 -81.0312 24.7373 -15.4211 -62.779 69.4578 -3.58889 14.2408 -103.028 -10.1737 -5.05019 
-267.117 76.9456 266.653 89.5245 31.5065 79.9702 -168.722 -11.996 79.1543 -58.6819 6.91835 -7.14404 -148.834 69.9035 -20.6114 -15.5163 11.1648 6.99196 -175.517 -4.23453 102.941 -33.7647 19.5185 -56.4782 123.683 -38.2903 65.2467 48.7998 -9.65721 -73.272 2.5292 4.60034 -89.1702 17.6789 5.40519 0.684144 6.01917 5.43003 0.444889 -16.5935 4.94912 2.28078 3.41919 4.9491 2.28078 128.481 -24.092 -26.1578 4.96226 -34.9365 -83.5645 -157.269 0.939697 179.988 -17.4472 -5.94437 33.4415 -52.8229 -42.1604 137.567 -7.55985 55.72 -18.1703 77.891 -7.90248 -79.6129 27.1502 -15.0795 -57.6509 66.0832 -3.72612 14.7861 -101.163 -9.40686 -5.8242 
-271.494 73.6879 271.303 89.0552 32.3279 77.1239 -171.246 -9.81501 75.5995 -55.9798 2.18255 -8.72587 -139.346 76.6621 -22.2694 -10.4213 12.6565 1.03002 -170.009 5.23159 99.1032 -65.9156 11.0919 -41.5483 106.438 -72.968 33.3517 70.088 -31.8673 -77.3333 2.56174 4.44282 -88.8083 17.9771 5.65608 1.35063 6.31808 5.71005 1.09961 -16.2926 4.98821 2.99161 3.72007 4.98824 2.99162 127.949 -22.796 -26.0688 56.432 4.02441 -64.9214 169.398 50.7547 -179.991 -11.7166 -4.52811 38.9576 -53.0708 -42.7847 136.895 -11.1101 55.9007 -11.5726 116.779 -2.94405 -78.219 25.5017 -11.0645 -46.6972 61.3528 -4.0025 15.4973 -98.4866 -8.40634 -6.91671 
-276.43 70.4741 276.247 88.3821 33.4617 73.5365 -173.881 -3.78304 73.0114 -53.9105 5.01483 -11.2635 48.3794 37.4898 178.516 18.2918 9.39535 17.2252 -163.716 13.208 92.823 -85.973 -1.09882 -31.2803 4.52848 -72.0048 -71.5225 150.844 -9.2509 11.6945 2.61664 4.24426 -88.3434 18.3489 6.00682 2.20168 6.69041 6.09788 1.93434 -15.9147 5.06733 3.90813 4.09792 5.06733 3.90813 127.274 -21.1147 -25.9105 115.306 37.4567 -100.504 -41.9061 72.7144 -0.0701378 -12.8398 -5.32876 41.5795 -53.4207 -43.5844 135.995 -15.2335 55.8858 -3.72978 152.632 1.64094 -79.157 16.3493 -5.96744 -39.2548 55.2589 -4.47164 16.3474 -94.943 -7.22435 -8.35837 
-282.068 68.3003 281.562 87.5118 34.936 69.2629 -176.555 1.44179 68.0845 -51.1444 19.2848 -9.4077 -89.9842 -36.9313 -41.286 117.461 50.884 120.819 -156.191 19.0413 84.1505 -95.6916 -11.1776 -24.7949 -16.8765 -56.7575 -90.2697 128.502 24.9922 44.7655 2.70631 3.97208 -87.7553 18.8584 6.493 3.25901 7.20039 6.63007 2.96923 -15.3935 5.21411 5.06147 4.61921 5.21411 5.06147 126.252 -18.8364 -25.8861 158.693 27.2271 -140.732 -52.2598 20.9378 0.189873 -20.1496 -10.272 49.7748 -54.1855 -44.0551 134.618 -20.1988 55.8624 5.44726 170.432 3.82096 -79.6231 10.9341 -3.9055 -36.3208 47.1425 -5.57204 16.8235 -90.1003 -6.12126 -10.0561 
